<svg width="28" height="28" viewBox="0 0 28 28" fill="none" xmlns="http://www.w3.org/2000/svg">
<path fill-rule="evenodd" clip-rule="evenodd" d="M8.96706 18.033L3.70001 23.3L4.68996 24.29L9.95701 19.0229L14.0178 23.0837L18.0608 19.0407L23.3313 24.3112L24.3212 23.3212L19.0508 18.0508L23.1484 13.9532L19.0876 9.89237L24.3112 4.66878L23.3212 3.67883L18.0976 8.90242L14.0389 4.84367L9.94126 8.94129L4.70001 3.70003L3.71006 4.68998L8.95131 9.93123L4.90831 13.9742L8.96706 18.033ZM9.95701 17.043L13.0101 13.99L9.94126 10.9212L6.88821 13.9742L9.95701 17.043ZM10.9312 9.93123L14.0389 6.82357L17.1077 9.89237L14 13L10.9312 9.93123ZM18.0976 10.8823L14.99 13.99L18.0608 17.0608L21.1685 13.9532L18.0976 10.8823ZM17.0709 18.0508L14 14.9799L10.947 18.033L14.0178 21.1038L17.0709 18.0508Z" fill="#F36F24"/>
</svg>
